Coordinates
version=1
nRows=10
nColumns=46
inDegrees=yes

Units are S.I. units (second, meters, Newtons, ...)
Angles are in degrees.

endheader
time	pelvis_tilt	pelvis_list	pelvis_rotation	pelvis_tx	pelvis_ty	pelvis_tz	bb_angle	bb_tx	bb_ty	bb_tz	hip_flexion_r	hip_adduction_r	hip_rotation_r	knee_angle_r	knee_angle_r_beta	ankle_angle_r	subtalar_angle_r	mtp_angle_r	crank_angle_r	hip_flexion_l	hip_adduction_l	hip_rotation_l	knee_angle_l	knee_angle_l_beta	ankle_angle_l	subtalar_angle_l	mtp_angle_l	crank_angle_l	lumbar_extension	lumbar_bending	lumbar_rotation	arm_flex_r	arm_add_r	arm_rot_r	elbow_flex_r	pro_sup_r	wrist_flex_r	wrist_dev_r	arm_flex_l	arm_add_l	arm_rot_l	elbow_flex_l	pro_sup_l	wrist_flex_l	wrist_dev_l
      5.00500000	    -12.79875724	      3.88512396	      4.40836698	      0.12174464	      1.13557782	     -0.27420110	      0.00000000	      0.50000000	      0.00000000	      0.25000000	     48.58271232	    -12.87837903	     -3.71571667	     66.12386345	      1.15407913	     -7.39240108	     -7.26608000	      0.00000000	      0.00000000	     81.84216236	     -0.66133485	      0.61066654	     90.00915416	      1.57095610	     17.50223541	      0.70912280	      0.00000000	      0.00000000	    -63.95770230	     -0.12705892	     -7.76206975	     79.19730374	    -18.72599054	     24.47000780	     72.69856703	     46.67093240	      0.00000000	      0.00000000	     86.18421355	    -28.89770135	     40.38863301	     72.09710610	     50.89574696	      0.00000000	      0.00000000
      5.01000000	    -12.49303034	      3.48123781	      4.44619087	      0.12228879	      1.13447266	     -0.27469977	      0.00000000	      0.50000000	      0.00000000	      0.25000000	     49.44751841	    -12.59102557	     -3.38111179	     68.86360811	      1.20189670	     -7.51266368	     -7.65046027	      0.00000000	      0.00000000	     80.01272328	     -0.48450349	      0.87728604	     87.56099999	      1.52822775	     18.96575448	      0.29136734	      0.00000000	      0.00000000	    -64.00285617	      0.25679462	     -7.29930493	     78.89561260	    -18.80023101	     24.46602836	     72.80222639	     46.69381060	      0.00000000	      0.00000000	     85.82217645	    -28.98393775	     40.41823633	     72.13285522	     50.90476794	      0.00000000	      0.00000000
      5.01500000	    -12.14169881	      3.39768733	      4.44636735	      0.12302522	      1.13347596	     -0.27527947	      0.00000000	      0.50000000	      0.00000000	      0.25000000	     50.28543548	    -12.58791221	     -2.85742792	     71.57117673	      1.24915268	     -7.45375122	     -7.77147123	      0.00000000	      0.00000000	     78.05325186	     -0.16055860	      0.91050117	     85.03076988	      1.48406690	     20.00008341	     -0.29066208	      0.00000000	      0.00000000	    -64.13733494	      0.36366200	     -7.12882463	     78.39667104	    -19.00180744	     24.47187994	     73.12262669	     46.76014092	      0.00000000	      0.00000000	     85.46954822	    -28.93721740	     40.26773984	     72.28110378	     50.90627105	      0.00000000	      0.00000000
      5.02000000	    -11.78733367	      2.99413543	      4.41045373	      0.12383543	      1.13197626	     -0.27590835	      0.00000000	      0.50000000	      0.00000000	      0.25000000	     51.01640690	    -12.28236094	     -2.57309269	     74.19791528	      1.29499792	     -7.13088828	     -7.96889121	      0.00000000	      0.00000000	     76.26616650	     -0.07540294	      1.20386128	     82.69520369	      1.44330358	     20.86167778	     -0.75506431	      0.00000000	      0.00000000	    -64.14829224	      0.68615310	     -6.69606585	     78.06190681	    -19.03493765	     24.55369200	     73.17552614	     46.78296948	      0.00000000	      0.00000000	     84.97929185	    -29.04415934	     40.26924302	     72.31585761	     50.91639573	      0.00000000	      0.00000000
      5.02500000	    -11.25492412	      3.01504686	      4.47315517	      0.12464190	      1.13093270	     -0.27667119	      0.00000000	      0.50000000	      0.00000000	      0.25000000	     51.58152355	    -12.46408897	     -2.11101082	     76.82671763	      1.34087918	     -6.47086232	     -7.59694514	      0.00000000	      0.00000000	     74.22741272	      0.24190554	      1.13566677	     80.27308512	      1.40102964	     21.15993096	     -1.30275921	      0.00000000	      0.00000000	    -64.43337366	      0.90296636	     -6.73508727	     77.69294193	    -19.11368203	     24.78712452	     73.47995578	     46.86797111	      0.00000000	      0.00000000	     84.54929197	    -29.14761807	     39.83173703	     72.59742205	     50.91495458	      0.00000000	      0.00000000
      5.03000000	    -10.79776324	      2.68085417	      4.42716897	      0.12558417	      1.12946054	     -0.27699112	      0.00000000	      0.50000000	      0.00000000	      0.25000000	     52.12118097	    -12.22724853	     -1.94116911	     79.33374181	      1.38463500	     -5.72076781	     -7.69441159	      0.00000000	      0.00000000	     72.46061697	      0.16774864	      1.36820944	     78.14849852	      1.36394860	     21.51429406	     -1.32560989	      0.00000000	      0.00000000	    -64.54153510	      1.16389338	     -6.42356793	     77.35336141	    -19.08504665	     24.94808645	     73.51224263	     46.89591245	      0.00000000	      0.00000000	     84.01744945	    -29.28302421	     39.71887513	     72.69636836	     50.92541778	      0.00000000	      0.00000000
      5.03500000	    -10.32513286	      2.45074080	      4.36314779	      0.12644636	      1.12816619	     -0.27736449	      0.00000000	      0.50000000	      0.00000000	      0.25000000	     52.63535730	    -12.12797167	     -1.78023110	     81.76220675	      1.42701971	     -4.84198777	     -7.56475039	      0.00000000	      0.00000000	     70.66717843	      0.10452575	      1.55124766	     76.04302595	      1.32720118	     21.60637494	     -1.24177092	      0.00000000	      0.00000000	    -64.71840117	      1.34751116	     -6.22156730	     77.08136514	    -19.09052648	     25.11047456	     73.56487270	     46.92721159	      0.00000000	      0.00000000	     83.59873565	    -29.42803751	     39.51384614	     72.87680266	     50.93833389	      0.00000000	      0.00000000
      5.04000000	    -10.05712687	      1.91152168	      4.22320673	      0.12701004	      1.12639184	     -0.27769037	      0.00000000	      0.50000000	      0.00000000	      0.25000000	     53.36297128	    -11.67676458	     -1.78062603	     84.08105830	      1.46749131	     -4.24535635	     -7.79835208	      0.00000000	      0.00000000	     69.24397401	     -0.21278954	      2.00959734	     74.09823388	      1.29325815	     21.43647212	     -1.08240799	      0.00000000	      0.00000000	    -64.69218520	      1.67770588	     -5.68429973	     76.89042545	    -18.99988219	     25.21012509	     73.55330458	     46.93762765	      0.00000000	      0.00000000	     83.38603795	    -29.61833199	     39.46736592	     72.89625297	     50.94047854	      0.00000000	      0.00000000
      5.04500000	     -9.52516116	      2.06409364	      4.24807732	      0.12782434	      1.12570087	     -0.27824447	      0.00000000	      0.50000000	      0.00000000	      0.25000000	     53.78392510	    -12.00609107	     -1.44841364	     86.42045132	      1.50832142	     -2.68235455	     -7.14989061	      0.00000000	      0.00000000	     67.24688824	     -0.06260745	      1.86602071	     71.86378109	      1.25425959	     21.09285504	     -0.98656623	      0.00000000	      0.00000000	    -65.06483399	      1.72814263	     -5.96829135	     76.79040876	    -19.04434126	     25.43624373	     73.76677966	     47.00477104	      0.00000000	      0.00000000	     82.91429224	    -29.84885897	     38.97139172	     73.28069449	     50.95671614	      0.00000000	      0.00000000
      5.05000000	     -9.25836365	      1.80234295	      4.20494433	      0.12839799	      1.12465522	     -0.27850647	      0.00000000	      0.50000000	      0.00000000	      0.25000000	     54.46446745	    -11.91605697	     -1.46611747	     88.62783542	      1.54684754	     -1.69802939	     -7.36408721	      0.00000000	      0.00000000	     65.66559058	     -0.25386598	      2.06918851	     69.75957069	      1.21753419	     20.69546843	     -0.44223942	      0.00000000	      0.00000000	    -65.11338058	      1.89260350	     -5.75087996	     76.61579939	    -19.07284167	     25.51771475	     73.70840767	     47.00812029	      0.00000000	      0.00000000	     82.61371830	    -29.94497197	     38.89461948	     73.40526888	     50.97367481	      0.00000000	      0.00000000
